<?xml version="1.0" encoding="UTF-8" standalone="no"?>
<svg xmlns="http://www.w3.org/2000/svg" viewBox="0 0 600 300" width="600" height="300">
  <path d="M589.8,96.9c0,0-7.4-0.7-9.4-0.9c-2-0.2-6.1-1.5-6.1-1.5s0.2-3.2-0.2-4.4c-0.4-1.2-1.7-2.2-2.6-3.2
  c-0.9-1-1.5-3.6-1.5-3.6s-2.2-0.4-2.8-0.2c-0.7,0.2-1.7,1.2-1.7,1.2s-5.7-3.1-6.3-3.6c-0.6-0.5-3.1-1.1-3.1-1.1l-0.4-4.8l-2-0.4
  l-2.7-0.2l-0.7-4.7c0,0-0.5-0.5-0.7-0.7c-0.2-0.2-3.3-1.6-3.3-1.6l-0.9-3.7c0,0-2.5-0.2-3.1-0.5c-0.5-0.4-1.5-2.4-1.5-2.4
  s-3.9-3.1-4.8-3.9c-0.9-0.7-2.2-3.5-2.2-3.5l-2.6-0.7l-1.7-0.4l-0.2-2.2c0,0-9.1-2.9-9.4-3.1c-0.4-0.2-7.4-2.4-7.4-2.4
  s-3.3-2.2-3.9-2.6c-0.5-0.4-3.3-3.5-3.3-3.5s-4.6-1.7-5.5-2c-0.9-0.2-10.2-0.9-11.1-0.7c-0.9,0.2-7.2,1.1-7.2,1.1l-3.7-0.2
  l-1.3-0.9c0,0-5.9-0.4-6.8-0.4c-0.9,0-6.5-0.2-6.5-0.2l-0.9-0.5l-2.6-0.4c0,0-2.2-2.2-2.6-2.8c-0.4-0.6-1.5-3.7-1.5-3.7
  s-3.7-2.4-4.6-2.8c-0.9-0.4-4.1-1.2-4.1-1.2l-3.7-4.4c0,0-3.3-1.1-3.9-1.5c-0.6-0.4-3.9-4.2-4.2-4.4c-0.4-0.2-7.6-1.3-7.6-1.3
  l-8.1-2.6l-2-1.9l-1.7-0.2v-2.9l-3.3-0.2l-4.6-3.1l-0.9-3.9l-1.5-0.2c0,0-1.7-3.1-2.4-3.9c-0.7-0.7-10-4.6-10-4.6l-2.6-2.8
  l-2.6-1.1l-2.8,0.2l-0.9-0.9c0,0-2.4-0.4-2.8-0.4c-0.4,0-7-1.5-7-1.5s-2.2-0.7-2.8-0.9c-0.6-0.2-5-0.6-5.2-0.4
  c-0.2,0.2-4.6,0.6-5.2,0.7c-0.7,0.2-4.6,0.2-4.6,0.2s-1.5-1.5-1.7-1.9c-0.2-0.4-1.1-3.1-1.1-3.1l-3.7-0.9c0,0-2-1.5-2.4-1.9
  c-0.4-0.4-3.3-0.9-3.9-0.9c-0.5,0-5.7,0.9-5.7,0.9s-5-1.5-5.9-1.7c-0.9-0.2-3.3-0.7-3.3-0.7l-0.6-0.4l-4.8-0.4l1.1-1.1l1.7-0.7
  l1.3-1.3l-1.7-0.9l-3.7,0.4l-5.5-2.6h-3.7h-4.5l-3.6-2.8l-1.9-3.1h-4.2c0,0-1.7-1.6-2.1-1.8c-0.4-0.2-2.7-0.7-2.7-0.7l-0.4,0.9
  l-5.2,0.2l-1.3-0.9l-2.8-0.2L312,4.3l-8.8,0.4l-4.8,1.1l-0.2,1.5L296,7.9l-0.6,1.3l-3.3,0.2h-2.2l-2.4-1.3l-8.7-0.7l-6.3,1.3
  l-3.7,0.2l-7.6,1.5L256,12l-4.2,0.6c0,0-3.9-0.6-4.6-0.7c-0.7-0.2-10.9,0.7-11.6,0.9c-0.7,0.2-3.1,1.3-3.3,1.5
  c-0.2,0.2-0.6,1.7-0.6,1.7h-6.5L220,19l-0.9,3l-3.7,2.4l-1.3,3.1c0,0-4.2,2.4-4.6,2.6c-0.4,0.2-2.4,0.9-2.8,1.1
  c-0.4,0.2-3.1,2.2-3.1,2.2v2.2c0,0-1.1,0.7-1.5,0.9c-0.4,0.2-2,0.6-2.4,0.7c-0.4,0.2-2.2,0.4-2.2,0.4l-3.3-1.1l-4.4,0.7l-3.1,3.1
  l-2.4,0.4l-2.6,0.9l-2.8,2.4l-3.9,1.5l-9.8,0.9c0,0-1.7,1.7-2,2c-0.2,0.2-1.1,2.4-1.1,2.4s-11.6,4.8-12.5,5.2
  c-0.9,0.4-4.4,2.2-4.4,2.2l-3.9,0.4l-5.2,4.6l-5.5,2l-1.7,2.6c0,0-10.9,3.9-11.6,4.4c-0.7,0.5-2.8,2.9-2.8,2.9l-3.5,1.3l-2.2-0.4
  l-4.6,3.7l-5.9,0.4l-2.2-3.1l-4.1-1.5l-1.5-1.7c0,0-5.9-0.9-6.5-0.9c-0.7,0-4.1,1.3-4.1,1.3l-4.1,0.4l-3.1,1.1l-1.7,1.5
  c0,0-3.1,1.3-3.9,1.5c-0.7,0.2-7.6,0.7-7.6,0.7l-5.7,3.9c0,0-6.1,0-7,0c-0.9,0-4.2,0.9-4.6,1.1c-0.4,0.2-5.5,2.4-5.5,2.4
  l-6.9,1.1l-5.7,2.6l-2.8,3.1l-11.3,2.2l-8.5,4.4c0,0-2.6,2.4-3.1,2.8c-0.5,0.4-2,1.5-2,1.5v2.8c0,0-3.1,0.2-3.7,0.2
  c-0.6,0-2.8,0.4-3.1,0.6c-0.4,0.2-2.4,1.5-2.4,1.5l-1.5,3l-2,1.1L9.4,120H10l1.1,1.9l1.3,2c0,0,8.7,2,12.8,3.1
  c4.1,1.1,12.1,3.7,12.1,3.7l4.1,1.3l4.8,4.4l2.6,0.2c0,0,1.5,2,1.7,2.4c0.2,0.4,1.3,2.2,1.3,2.2l2.2,0.2c0,0,0.4,0.9,0.7,1.3
  c0.2,0.4,0.9,1.7,0.9,1.7s4.1,0.4,4.6,0.6c0.6,0.2,3.9,1.1,3.9,1.1l3.1,0.6l1.7,1.1l0.9,1.3l2.2,0.4l0.9,1.5l2,0.6l2.4,0.6
  l3.3,1.9l3.3,0.4l6.5,0.2h3.3l14.2-0.4l6.5-1.3l7.4-0.4l3.5-0.4l2.6-0.4l1.9-0.4l2-1.1l1.3-0.9l1.5-0.7l1.5-0.4l4.8-0.9l1.9-0.4
  l2.6-0.2l2.2-0.4c0,0,2.4-0.4,2.8-0.4c0.4,0,3.5,0,3.5,0l5-0.6l3.3-0.2l1.7-0.2l1.9-0.7l2.4-2.2l2-0.6l3.7-0.4l1.9-0.4l1.1-0.6
  l2.6-3.3c0,0,1.5-0.6,1.9-0.7c0.4-0.2,2.6-0.7,2.6-0.7l2-1.1l2.6-0.7l2.4-0.9c0,0,2.6-1.3,3.1-1.5c0.5-0.2,4.1-1.7,4.1-1.7
  l2.8-3.3l0.6-0.7l8.1-0.2l3.3-1.7c0,0,1.3-0.2,1.7-0.4c0.4-0.2,2.2-1.3,2.2-1.3s1.1-0.7,1.7-0.7c0.6,0,2.4,0,2.4,0l4.4-2.4
  c0,0,5.9-0.4,6.5-0.4c0.6,0,3.5-0.4,3.5-0.4l5.9-3.1l4.6-2.2l3.9-1.5l2.4-0.9c0,0,2.8,0.2,3.5,0.2c0.6,0,12.1,1.3,12.1,1.3
  l4.1,0.7l3.9,1.1c0,0,3.7,1.3,4.1,1.5c0.4,0.2,4.1,2.6,4.1,2.6l3.3,3.3l3.5,1.1c0,0-1.1,1.5-1.5,1.9c-0.4,0.4-2.4,2.2-2.4,2.2
  l-2.9,3.7l-3.1,1.3l-4.1,4.2l-3.3,2.8l-2.2,2.2c0,0-0.9,2.2-1.1,2.6c-0.2,0.4-0.6,3.5-0.6,3.5l-2.4,3.9c0,0-2.6,1.5-3.1,1.7
  c-0.5,0.2-4.1,0.9-4.1,0.9l-3.1,0.6l-1.1,0.6c0,0-0.2,1.1-0.2,1.5c0,0.4-0.2,3.1-0.2,3.1l-0.9,1.7l-2,2.6l-0.4,2.2
  c0,0,0.4,1.9,0.4,2.4c0,0.5,0.6,5.9,0.6,5.9l-0.4,4.6l-0.7,4.2l-0.9,3.9c0,0-1.5,1.1-1.7,1.5c-0.2,0.4-1.3,3.9-1.3,3.9
  s0.4,6.3,0.4,7c0,0.7,0.2,8.3,0.2,8.3s2.8,5.5,3.3,6.5c0.5,1.1,3.7,7.6,3.7,7.6l1.5,2.2l5,4.4l5.5,3.1l1.7,2h1.5l0.4,2.2l1.1,2
  l2,0.9l2.6,0.4l1.3,1.7l5.5,3.3l7,2.8l1.1,2.4c0,0-0.2,1.9-0.2,2.4c0,0.5,0.6,3.7,0.6,3.7l-0.7,6.1l-0.9,4.8l-0.6,2.8l-2.6,3.3
  l0.7,2.8L257,283l1.7,0.4l3.3,0.4l2-0.7c0,0,2-0.4,2.2-0.4c0.2,0,2-0.4,2-0.4l3.7-2l3.3-0.6l2-0.2l1.7-1.9c0,0,4.2-0.5,4.6-0.6
  c0.4-0.1,3.9-0.7,3.9-0.7l7.6,0.2l2.9,0.4l1.9,0.2c0,0,1.7,0.9,2,1.1c0.2,0.2,3.3,0.9,3.3,0.9l1.7,0.2c0,0,2.6,0.2,3.1,0.4
  c0.6,0.2,3.7,1.1,3.7,1.1l4.8,1.3l2.6,0.6l1.5,0.6l1.9,5c0,0,1.1,0.9,1.3,1.1c0.2,0.2,1.9,0.6,1.9,0.6s2.2,0.4,2.6,0.4
  c0.4,0,2.6,0.2,2.6,0.2l0.9,0.9c0,0,8.1,0.2,9,0.2c0.9,0,5.2-0.2,5.2-0.2l3.7-0.4l2.2-0.7l3.3-0.6l5-0.6l3.3-0.6c0,0,2.8-0.9,3.5-1.1
  c0.7-0.2,4.4-1.3,4.4-1.3l3.1-0.7l4.4-0.6c0,0,0.6-1.5,0.7-1.9c0.2-0.4,0.9-3.1,0.9-3.1s1.7-1.7,2-2c0.2-0.2,1.9-1.9,1.9-1.9
  l0.2-3.5l0.9-0.9c0,0,3.7,0,4.4,0c0.6,0,3.9-0.7,3.9-0.7l4.1-2.4c0,0,3.9-2.8,4.2-2.9c0.4-0.2,4.1-2,4.1-2l9.1-1.5l4.8-0.6l15.9-0.6
  l5.9-0.2l14-1.1l4.1-0.9c0,0,3.5-0.5,3.9-0.6c0.4-0.1,4.6-0.9,4.6-0.9s1.3-1.5,1.7-1.5c0.4,0,6.3-0.4,6.3-0.4l5.7-0.4l5.9-0.4
  c0,0,2.2-2.2,2.6-2.4c0.4-0.2,2.2-1.9,2.2-1.9l6.3-1.3l4.4-0.7l10-0.9c0,0,2.8-1.3,3.5-1.5c0.7-0.2,2.4-0.7,2.4-0.7l0.4-2.6
  c0,0,2-3.7,2.2-4.1c0.2-0.4,1.7-3.7,1.7-3.7l0.2-7.2l0.9-1.5l1.9-2.6l-0.2-2.4c0,0,1.7-5.7,1.9-6.3c0.2-0.6,1.1-5.2,1.1-5.2
  l2.8-5.7l0.9-5c0,0,3.1-4.8,3.5-5.2c0.4-0.4,1.5-0.9,1.5-0.9l0.9-3.9l-0.9-4.2l-0.2-2.8l0.4-3.5c0,0,2.8-5.9,3.1-6.5
  c0.4-0.6,1.3-2.6,1.3-2.6s-0.2-6.1-0.2-6.8c0-0.7-0.2-4.2-0.2-4.8c0-0.6,0.7-5.5,0.7-5.5l2.8-7.8l2.2-2l0.7-3.1l0.9-3.3l0.6-2.6
  L589,138c0,0,3.7-2.2,4.1-2.6c0.4-0.4,3.3-2.6,3.3-2.6l3.3-2.4l0.2-3.5c0,0-0.4-9.8-0.4-10.7c0-0.9-0.6-4.6-0.6-4.6l-1.1-5.2
  l-1.1-3.3l-1.1-1.9l-1.9-1.9l-0.9-2.4l-2.2-0.7C589.5,96.1,589.8,96.9,589.8,96.9z" fill="currentColor"/>
</svg>